<svg xmlns="http://www.w3.org/2000/svg" width="84.961" height="78.26" viewBox="0 0 84.961 78.26">
  <g id="Diamon" transform="translate(-3.719 -6)">
    <path id="Trazado_1" data-name="Trazado 1" d="M23.824,6,5.448,28.051,3.719,30.1l1.729,2.27L43.5,80.8l2.7,3.459L48.9,80.8,86.951,32.375,88.68,30.1l-1.729-2.054L68.575,6Zm3.243,6.918H39.714l-9.3,13.836H15.5Zm25.618,0H65.332L76.9,26.754H61.981ZM46.2,15.836l7.35,10.917h-14.7ZM15.177,33.672H29.769l8.215,29.077Zm21.727,0H55.387L46.2,65.884Zm25.726,0H77.222L54.415,62.641Z" transform="translate(0 0)" fill="#16ace3"/>
  </g>
</svg>
