<svg xmlns="http://www.w3.org/2000/svg" width="76.096" height="80.101" viewBox="0 0 76.096 80.101">
  <path id="History" d="M3,2V68.083C3,75.345,7.886,82.1,15.015,82.1H67.081C74.21,82.1,79.1,75.345,79.1,68.083S74.21,54.066,67.081,54.066V2H55.066a4.005,4.005,0,0,1-8.01,0h-8.01a4.005,4.005,0,0,1-8.01,0h-8.01a4.005,4.005,0,1,1-8.01,0Zm8.01,12.015H59.071v40.05H15.015a10.56,10.56,0,0,0-4.005.837Zm8.01,8.01v8.01h32.04v-8.01Zm0,16.02v8.01H39.045v-8.01Zm-4.005,24.03c1.718,0,4.005,2.209,4.005,6.008s-2.287,6.008-4.005,6.008-4.005-2.209-4.005-6.008S13.3,62.076,15.015,62.076Zm10.81,0H67.081c1.722,0,4.005,2.207,4.005,6.008s-2.283,6.008-4.005,6.008H25.826a15.582,15.582,0,0,0,0-12.015Z" transform="translate(-3 -2)" fill="#fff"/>
</svg>
