<?xml version="1.0" encoding="utf-8"?>
<!-- Generator: Adobe Illustrator 22.0.1, SVG Export Plug-In . SVG Version: 6.00 Build 0)  -->
<svg version="1.1" id="Capa_1" xmlns="http://www.w3.org/2000/svg" xmlns:xlink="http://www.w3.org/1999/xlink" x="0px" y="0px"
	 viewBox="0 0 512 512" style="enable-background:new 0 0 512 512;" xml:space="preserve">
<path d="M447.8,381.3h-10.2V256c0-39.7-12.7-77.5-36.6-109.2c-21.2-28-50.5-49.7-83.3-61.6c1.9-6.1,2.9-12.5,2.9-19.1
	c0-35.6-29-64.6-64.6-64.6s-64.6,29-64.6,64.6c0,6.6,1,13,2.9,19.1c-32.8,11.9-62.1,33.5-83.3,61.6C87,178.5,74.4,216.3,74.4,256
	v125.3H64.2c-15.5,0-28.2,12.6-28.2,28.2c0,15.5,12.6,28.2,28.2,28.2h90.9c12.4,42.6,52.1,72.9,97.1,72.9h7.7
	c44.9,0,84.6-30.2,97.1-72.9h90.9c15.5,0,28.2-12.7,28.2-28.2C476,393.9,463.4,381.3,447.8,381.3z M259.8,454.2h-7.7
	c-13.6,0-26.3-6.3-34.6-16.5h77C286.1,447.9,273.4,454.2,259.8,454.2z M381.3,381.3H130.7V256c0-69.1,56.2-125.3,125.3-125.3
	S381.3,186.9,381.3,256V381.3z"/>
</svg>
