<svg xmlns="http://www.w3.org/2000/svg" width="79.679" height="80.101" viewBox="0 0 79.679 80.101">
  <path id="search" d="M53,19.476A33.2,33.2,0,0,0,19.476,53,33.2,33.2,0,0,0,53,86.523a36.067,36.067,0,0,0,18.778-5.369L89.766,99.577l9.389-9.389-18-18.41A36.067,36.067,0,0,0,86.523,53,33.2,33.2,0,0,0,53,19.476Zm0,13.409A19.755,19.755,0,0,1,73.114,53,19.755,19.755,0,0,1,53,73.114,19.755,19.755,0,0,1,32.886,53,19.755,19.755,0,0,1,53,32.886Z" transform="translate(-19.476 -19.476)" fill="#fff"/>
</svg>
