<svg xmlns="http://www.w3.org/2000/svg" width="90.496" height="81.446" viewBox="0 0 90.496 81.446">
  <path id="shoes" d="M78.921,3c-6.787,0-11.688,4.239-16.65,7.547s-9.745,6.027-15.024,6.027H24.624a9.935,9.935,0,0,0-4.286,1.043,9.413,9.413,0,0,0-4.763,8.007,9.935,9.935,0,0,0,1.043,4.286c.917,1.834,3.388,3.581,6.3,4.233-.314.476-.221,1.044-.654,1.52a22.6,22.6,0,0,1-6.451,4.578,46.975,46.975,0,0,1-10.172,3.57L2,44.536v3.712c0,8.712,4.961,17.088,10.428,23.79a53.714,53.714,0,0,0,8.457,8.422c2.81,2.178,5.146,3.986,8.926,3.986,8.571,0,14.976-5.635,19.257-10.631a44.505,44.505,0,0,0,6.08-8.97C64.907,54.271,73.537,48.917,80.485,42.8S92.5,28.944,92.5,16.574a15.56,15.56,0,0,0-1.608-6.549A13.428,13.428,0,0,0,78.921,3Zm0,9.05c3.017,0,3.279.841,3.871,2.024a7.076,7.076,0,0,1,.654,2.5c0,10.254-2.888,14.114-8.943,19.442S59,47.309,48.45,58.755l-.442.468-.283.574a45.426,45.426,0,0,1-5.523,8.13c-3.473,4.053-8.047,7.468-12.39,7.468.8,0-1.27-.455-3.385-2.094a45.734,45.734,0,0,1-6.99-6.99,37.454,37.454,0,0,1-7.583-15.183,30.275,30.275,0,0,0,8.007-2.793,30.628,30.628,0,0,0,9.1-6.593,17.3,17.3,0,0,0,4.71-11.595V25.624h9.05v9.05h9.05v-9.5A28.37,28.37,0,0,0,56.3,23.989v6.16h9.05V19.314c.645-.414,1.336-.832,1.944-1.237C72.51,14.6,76.659,12.05,78.921,12.05Z" transform="translate(-2 -3)" fill="#fff"/>
</svg>
